<svg width="1686" height="880" viewBox="0 0 1686 880" fill="none" xmlns="http://www.w3.org/2000/svg">
<path d="M262.074 255.438C261.278 247.994 257.926 242.199 252.017 238.051C246.165 233.903 238.551 231.83 229.176 231.83C222.585 231.83 216.932 232.824 212.216 234.812C207.5 236.801 203.892 239.5 201.392 242.909C198.892 246.318 197.614 250.21 197.557 254.585C197.557 258.222 198.381 261.375 200.028 264.045C201.733 266.716 204.034 268.989 206.932 270.864C209.83 272.682 213.04 274.216 216.562 275.466C220.085 276.716 223.636 277.767 227.216 278.619L243.58 282.71C250.17 284.244 256.506 286.318 262.585 288.932C268.722 291.545 274.205 294.841 279.034 298.818C283.92 302.795 287.784 307.597 290.625 313.222C293.466 318.847 294.886 325.437 294.886 332.994C294.886 343.222 292.273 352.227 287.045 360.011C281.818 367.739 274.261 373.79 264.375 378.165C254.545 382.483 242.642 384.642 228.665 384.642C215.085 384.642 203.295 382.54 193.295 378.335C183.352 374.131 175.568 367.994 169.943 359.926C164.375 351.858 161.364 342.028 160.909 330.438H192.017C192.472 336.517 194.347 341.574 197.642 345.608C200.938 349.642 205.227 352.653 210.511 354.642C215.852 356.631 221.818 357.625 228.409 357.625C235.284 357.625 241.307 356.602 246.477 354.557C251.705 352.455 255.795 349.557 258.75 345.864C261.705 342.114 263.21 337.739 263.267 332.739C263.21 328.193 261.875 324.443 259.261 321.489C256.648 318.477 252.983 315.977 248.267 313.989C243.608 311.943 238.153 310.125 231.903 308.534L212.045 303.42C197.67 299.727 186.307 294.131 177.955 286.631C169.659 279.074 165.511 269.045 165.511 256.545C165.511 246.261 168.295 237.256 173.864 229.528C179.489 221.801 187.131 215.807 196.79 211.545C206.449 207.227 217.386 205.068 229.602 205.068C241.989 205.068 252.841 207.227 262.159 211.545C271.534 215.807 278.892 221.744 284.233 229.358C289.574 236.915 292.33 245.608 292.5 255.438H262.074ZM354.695 207.455V382H323.075V207.455H354.695ZM448.082 382H388.935V207.455H449.276C466.605 207.455 481.491 210.949 493.935 217.938C506.435 224.869 516.037 234.841 522.741 247.852C529.446 260.864 532.798 276.432 532.798 294.557C532.798 312.739 529.418 328.364 522.656 341.432C515.952 354.5 506.264 364.528 493.594 371.517C480.98 378.506 465.81 382 448.082 382ZM420.554 354.642H446.548C458.707 354.642 468.849 352.426 476.974 347.994C485.099 343.506 491.207 336.83 495.298 327.966C499.389 319.045 501.435 307.909 501.435 294.557C501.435 281.205 499.389 270.125 495.298 261.318C491.207 252.455 485.156 245.835 477.145 241.46C469.19 237.028 459.304 234.812 447.486 234.812H420.554V354.642ZM562.841 382V207.455H676.364V233.96H594.46V281.347H670.483V307.852H594.46V355.494H677.045V382H562.841ZM837.017 207.455H868.381V330.182C868.324 341.432 865.938 351.119 861.222 359.244C856.506 367.312 849.915 373.534 841.449 377.909C833.04 382.227 823.239 384.386 812.045 384.386C801.818 384.386 792.614 382.568 784.432 378.932C776.307 375.239 769.858 369.784 765.085 362.568C760.313 355.352 757.926 346.375 757.926 335.636H789.375C789.432 340.352 790.455 344.415 792.443 347.824C794.489 351.233 797.301 353.847 800.881 355.665C804.46 357.483 808.58 358.392 813.239 358.392C818.295 358.392 822.585 357.341 826.108 355.239C829.631 353.08 832.301 349.898 834.119 345.693C835.994 341.489 836.96 336.318 837.017 330.182V207.455ZM1058.65 294.727C1058.65 313.534 1055.13 329.642 1048.08 343.051C1041.09 356.403 1031.55 366.631 1019.45 373.733C1007.4 380.835 993.736 384.386 978.452 384.386C963.168 384.386 949.474 380.835 937.372 373.733C925.327 366.574 915.781 356.318 908.736 342.966C901.747 329.557 898.253 313.477 898.253 294.727C898.253 275.92 901.747 259.841 908.736 246.489C915.781 233.08 925.327 222.824 937.372 215.722C949.474 208.619 963.168 205.068 978.452 205.068C993.736 205.068 1007.4 208.619 1019.45 215.722C1031.55 222.824 1041.09 233.08 1048.08 246.489C1055.13 259.841 1058.65 275.92 1058.65 294.727ZM1026.86 294.727C1026.86 281.489 1024.79 270.324 1020.64 261.233C1016.55 252.085 1010.87 245.182 1003.59 240.523C996.321 235.807 987.94 233.449 978.452 233.449C968.963 233.449 960.582 235.807 953.31 240.523C946.037 245.182 940.327 252.085 936.179 261.233C932.088 270.324 930.043 281.489 930.043 294.727C930.043 307.966 932.088 319.159 936.179 328.307C940.327 337.398 946.037 344.301 953.31 349.017C960.582 353.676 968.963 356.006 978.452 356.006C987.94 356.006 996.321 353.676 1003.59 349.017C1010.87 344.301 1016.55 337.398 1020.64 328.307C1024.79 319.159 1026.86 307.966 1026.86 294.727ZM1088.54 382V207.455H1155.36C1167.98 207.455 1178.46 209.443 1186.81 213.42C1195.22 217.341 1201.5 222.71 1205.65 229.528C1209.85 236.347 1211.95 244.074 1211.95 252.71C1211.95 259.812 1210.59 265.892 1207.86 270.949C1205.13 275.949 1201.47 280.011 1196.87 283.136C1192.27 286.261 1187.12 288.506 1181.44 289.869V291.574C1187.63 291.915 1193.57 293.818 1199.25 297.284C1204.99 300.693 1209.68 305.523 1213.32 311.773C1216.95 318.023 1218.77 325.58 1218.77 334.443C1218.77 343.477 1216.58 351.602 1212.21 358.818C1207.83 365.977 1201.24 371.631 1192.44 375.778C1183.63 379.926 1172.55 382 1159.2 382H1088.54ZM1120.16 355.58H1154.17C1165.65 355.58 1173.91 353.392 1178.97 349.017C1184.08 344.585 1186.64 338.903 1186.64 331.972C1186.64 326.801 1185.36 322.142 1182.81 317.994C1180.25 313.79 1176.61 310.494 1171.9 308.108C1167.18 305.665 1161.56 304.443 1155.02 304.443H1120.16V355.58ZM1120.16 281.688H1151.44C1156.9 281.688 1161.81 280.693 1166.19 278.705C1170.56 276.659 1174 273.79 1176.5 270.097C1179.06 266.347 1180.33 261.915 1180.33 256.801C1180.33 250.04 1177.95 244.472 1173.17 240.097C1168.46 235.722 1161.44 233.534 1152.12 233.534H1120.16V281.688Z" fill="black"/>
<path d="M310.653 497.455V672H282.528L200.284 553.108H198.835V672H167.216V497.455H195.511L277.67 616.432H279.205V497.455H310.653ZM345.107 672V497.455H458.629V523.96H376.726V571.347H452.749V597.852H376.726V645.494H459.311V672H345.107ZM483.217 523.96V497.455H622.479V523.96H568.53V672H537.166V523.96H483.217ZM686.058 672L636.797 497.455H670.803L702.251 625.722H703.871L737.45 497.455H768.388L802.053 625.807H803.587L835.036 497.455H869.041L819.78 672H788.587L753.643 549.528H752.28L717.251 672H686.058ZM1037.56 584.727C1037.56 603.534 1034.03 619.642 1026.99 633.051C1020 646.403 1010.45 656.631 998.352 663.733C986.307 670.835 972.642 674.386 957.358 674.386C942.074 674.386 928.381 670.835 916.278 663.733C904.233 656.574 894.688 646.318 887.642 632.966C880.653 619.557 877.159 603.477 877.159 584.727C877.159 565.92 880.653 549.841 887.642 536.489C894.688 523.08 904.233 512.824 916.278 505.722C928.381 498.619 942.074 495.068 957.358 495.068C972.642 495.068 986.307 498.619 998.352 505.722C1010.45 512.824 1020 523.08 1026.99 536.489C1034.03 549.841 1037.56 565.92 1037.56 584.727ZM1005.77 584.727C1005.77 571.489 1003.69 560.324 999.545 551.233C995.455 542.085 989.773 535.182 982.5 530.523C975.227 525.807 966.847 523.449 957.358 523.449C947.869 523.449 939.489 525.807 932.216 530.523C924.943 535.182 919.233 542.085 915.085 551.233C910.994 560.324 908.949 571.489 908.949 584.727C908.949 597.966 910.994 609.159 915.085 618.307C919.233 627.398 924.943 634.301 932.216 639.017C939.489 643.676 947.869 646.006 957.358 646.006C966.847 646.006 975.227 643.676 982.5 639.017C989.773 634.301 995.455 627.398 999.545 618.307C1003.69 609.159 1005.77 597.966 1005.77 584.727ZM1067.45 672V497.455H1132.9C1146.31 497.455 1157.56 499.784 1166.65 504.443C1175.8 509.102 1182.71 515.636 1187.37 524.045C1192.08 532.398 1194.44 542.142 1194.44 553.278C1194.44 564.472 1192.05 574.187 1187.28 582.426C1182.56 590.608 1175.6 596.943 1166.4 601.432C1157.19 605.864 1145.89 608.08 1132.48 608.08H1085.86V581.83H1128.22C1136.06 581.83 1142.48 580.75 1147.48 578.591C1152.48 576.375 1156.17 573.165 1158.56 568.96C1161 564.699 1162.22 559.472 1162.22 553.278C1162.22 547.085 1161 541.801 1158.56 537.426C1156.12 532.994 1152.39 529.642 1147.39 527.369C1142.39 525.04 1135.94 523.875 1128.05 523.875H1099.07V672H1067.45ZM1157.62 592.909L1200.83 672H1165.55L1123.1 592.909H1157.62ZM1223.54 672V497.455H1255.16V577.653H1257.29L1325.39 497.455H1364L1296.5 575.778L1364.6 672H1326.58L1274.51 597.17L1255.16 620.011V672H1223.54Z" fill="black"/>
<path d="M1456 483L1536 585L1456 687" stroke="black" stroke-width="32" stroke-linecap="round" stroke-linejoin="round"/>
</svg>
