<svg width="1137" height="746" viewBox="0 0 1137 746" fill="none" xmlns="http://www.w3.org/2000/svg">
<path d="M171.049 175.5L325.951 373L171.049 570.5" stroke="black" stroke-width="61.9608" stroke-linecap="round" stroke-linejoin="round"/>
<path d="M488.039 154.636V591H408.991V154.636H488.039ZM721.509 591H573.639V154.636H724.492C767.816 154.636 805.031 163.372 836.139 180.844C867.389 198.173 891.395 223.102 908.156 255.631C924.918 288.159 933.298 327.08 933.298 372.392C933.298 417.847 924.847 456.909 907.943 489.58C891.182 522.25 866.963 547.321 835.287 564.793C803.753 582.264 765.827 591 721.509 591ZM652.688 522.605H717.673C748.071 522.605 773.426 517.065 793.739 505.986C814.051 494.764 829.321 478.074 839.548 455.915C849.776 433.614 854.889 405.773 854.889 372.392C854.889 339.011 849.776 311.312 839.548 289.295C829.321 267.136 814.193 250.588 794.165 239.651C774.279 228.571 749.563 223.031 720.017 223.031H652.688V522.605Z" fill="black"/>
</svg>
